<svg xmlns="http://www.w3.org/2000/svg" viewBox="0 0 640 420" role="img" aria-label="Team collaboration illustration">
  <rect width="640" height="420" rx="28" fill="#f7fafc"/>
  <rect x="48" y="68" width="544" height="292" rx="24" fill="#ffffff" stroke="#d9e2ec"/>
  <rect x="88" y="104" width="214" height="220" rx="20" fill="#e8f1f8"/>
  <circle cx="154" cy="162" r="30" fill="#97b3c8"/>
  <rect x="198" y="145" width="72" height="14" rx="7" fill="#0f3d63"/>
  <rect x="198" y="170" width="58" height="12" rx="6" fill="#7b8794"/>
  <circle cx="154" cy="246" r="30" fill="#bed1df"/>
  <rect x="198" y="228" width="80" height="14" rx="7" fill="#0f3d63"/>
  <rect x="198" y="254" width="64" height="12" rx="6" fill="#7b8794"/>
  <rect x="338" y="110" width="210" height="78" rx="18" fill="#0f3d63"/>
  <rect x="364" y="134" width="92" height="14" rx="7" fill="#ffffff"/>
  <rect x="364" y="158" width="142" height="12" rx="6" fill="#c5d7e6"/>
  <rect x="338" y="214" width="210" height="92" rx="18" fill="#f7fafc" stroke="#d9e2ec"/>
  <rect x="364" y="236" width="154" height="12" rx="6" fill="#0f3d63"/>
  <rect x="364" y="260" width="128" height="12" rx="6" fill="#7b8794"/>
  <rect x="364" y="284" width="102" height="12" rx="6" fill="#c3d4e2"/>
</svg>
