<svg xmlns="http://www.w3.org/2000/svg" viewBox="0 0 640 420" role="img" aria-label="Consultant helping a job seeker illustration">
  <rect width="640" height="420" rx="28" fill="#f6f9fc"/>
  <rect x="38" y="42" width="564" height="336" rx="24" fill="#ffffff" stroke="#d9e2ec"/>
  <rect x="72" y="86" width="224" height="250" rx="20" fill="#e8f1f8"/>
  <circle cx="132" cy="144" r="28" fill="#9fbcd3"/>
  <rect x="172" y="128" width="86" height="14" rx="7" fill="#0f3d63"/>
  <rect x="172" y="152" width="64" height="10" rx="5" fill="#7b8794"/>
  <rect x="104" y="204" width="140" height="12" rx="6" fill="#0f3d63"/>
  <rect x="104" y="230" width="120" height="12" rx="6" fill="#7b8794"/>
  <rect x="104" y="256" width="132" height="12" rx="6" fill="#c3d4e2"/>
  <rect x="334" y="88" width="228" height="94" rx="18" fill="#0f3d63"/>
  <rect x="362" y="114" width="88" height="14" rx="7" fill="#ffffff"/>
  <rect x="362" y="140" width="138" height="12" rx="6" fill="#c5d7e6"/>
  <rect x="334" y="206" width="228" height="118" rx="18" fill="#f7fafc" stroke="#d9e2ec"/>
  <circle cx="382" cy="246" r="24" fill="#bed1df"/>
  <rect x="420" y="236" width="78" height="12" rx="6" fill="#0f3d63"/>
  <rect x="420" y="258" width="62" height="10" rx="5" fill="#7b8794"/>
  <path d="M374 298l20 20 46-54" fill="none" stroke="#0f3d63" stroke-linecap="round" stroke-linejoin="round" stroke-width="9"/>
  <circle cx="540" cy="110" r="20" fill="#e8f1f8"/>
  <path d="M530 110h20M540 100v20" stroke="#0f3d63" stroke-linecap="round" stroke-width="6"/>
</svg>
