<svg xmlns="http://www.w3.org/2000/svg" viewBox="0 0 640 420" role="img" aria-label="Services illustration">
  <rect width="640" height="420" rx="28" fill="#f6f9fc"/>
  <rect x="58" y="58" width="164" height="304" rx="20" fill="#ffffff" stroke="#d9e2ec"/>
  <rect x="84" y="88" width="112" height="18" rx="9" fill="#0f3d63"/>
  <rect x="84" y="126" width="96" height="12" rx="6" fill="#7b8794"/>
  <rect x="84" y="152" width="82" height="12" rx="6" fill="#c3d4e2"/>
  <rect x="84" y="208" width="112" height="18" rx="9" fill="#0f3d63"/>
  <rect x="84" y="246" width="96" height="12" rx="6" fill="#7b8794"/>
  <rect x="84" y="272" width="82" height="12" rx="6" fill="#c3d4e2"/>
  <rect x="254" y="58" width="328" height="304" rx="20" fill="#ffffff" stroke="#d9e2ec"/>
  <rect x="286" y="92" width="122" height="16" rx="8" fill="#0f3d63"/>
  <rect x="286" y="128" width="120" height="92" rx="18" fill="#e8f1f8"/>
  <path d="M316 192l26-30 30 20 36-44 28 28" fill="none" stroke="#0f3d63" stroke-linecap="round" stroke-linejoin="round" stroke-width="8"/>
  <rect x="430" y="128" width="120" height="92" rx="18" fill="#f7fafc" stroke="#d9e2ec"/>
  <circle cx="470" cy="164" r="22" fill="#bed1df"/>
  <rect x="500" y="152" width="28" height="10" rx="5" fill="#0f3d63"/>
  <rect x="500" y="172" width="20" height="10" rx="5" fill="#7b8794"/>
  <rect x="286" y="252" width="264" height="14" rx="7" fill="#0f3d63"/>
  <rect x="286" y="280" width="224" height="12" rx="6" fill="#7b8794"/>
  <rect x="286" y="304" width="174" height="12" rx="6" fill="#c3d4e2"/>
</svg>
